# xmcd CD database file
#
# Track frame offsets:
#	150
#	16502
#	18815
#	27352
#	31640
#	42522
#	46897
#	58815
#	71535
#	80337
#	94182
#	103227
#	109267
#	109610
#	119855
#	134365
#	142012
#	156122
#	166820
#	184142
#	187627
#	191510
#	197467
#	203805
#	207415
#	208250
#	210717
#	213642
#	215910
#	218445
#	220800
#	223495
#	225975
#	228960
#	230990
#	233045
#	235010
#	237692
#	241022
#
# Disc length: 3328 seconds
#
# Revision: 3
# Processed by: cddbd v1.5.2PL0 Copyright (c) Steve Scherf et al.
# Submitted via: CDex 1.51
#
DISCID=3d0cfe27
DTITLE=テクノスジャパン - 超人学園ゴウカイザー
DYEAR=1995
DGENRE=ゲーム音楽
TTITLE0=全開戦士ゴウカイザー (Arrange Version)
TTITLE1=愛 ゴウカイザー (オープニング)
TTITLE2=愛 ゴウカイザー (タイトル)
TTITLE3=カイザービート (プレイヤーセレクト)
TTITLE4=全開戦士ゴウカイザー
TTITLE5=勝ちました… (勝利者デモ)
TTITLE6=Come On Baby ! てかぁー (キャプテン･アトランティス テーマ)
TTITLE7=月光奇譚 (不動丸 テーマ)
TTITLE8=Psycho Eyes (ヘルスティンガー テーマ)
TTITLE9=崩れる砂 (紫紅京介 テーマ)
TTITLE10=負けるな変身番長ブライダー (ブライダー テーマ)
TTITLE11=勇者の背中 (中間デモ)
TTITLE12=わたしが相手だ (乱入モード)
TTITLE13=天晴娘々大冒険 (華鈴 テーマ)
TTITLE14=ハートジャックに恋して (シャイア テーマ)
TTITLE15=暗龍演舞 (神龍 テーマ)
TTITLE16=FACTORY MARION (マリオン テーマ)
TTITLE17=W.JUNGLE (プラトニック･ツインズ テーマ)
TTITLE18=KENGORYTHM (ラストボス 王牙 テーマ)
TTITLE19=キンコンカン (Ending 1)
TTITLE20=超人への道 (Ending 2)
TTITLE21=野望 (Ending 3)
TTITLE22=やっぱり愛ってさぁ… (スタッフロール)
TTITLE23=炎の10カウント (コンティニュー)
TTITLE24=立て ! 立つんだ ゴー (ゲームオーバー)
TTITLE25=ゴウカイザー Voice
TTITLE26=キャプテン･アトランティス Voice
TTITLE27=不動丸 Voice
TTITLE28=ヘルスティンガー Voice
TTITLE29=紫紅京介 Voice
TTITLE30=ブライダー Voice
TTITLE31=華鈴 Voice
TTITLE32=シャイア Voice
TTITLE33=神龍 Voice
TTITLE34=マリオン Voice
TTITLE35=プラトニック･ツインズ Voice
TTITLE36=牙 Voice
TTITLE37=ナレーター Voice
TTITLE38=S.E. Collection
EXTD=YEAR: 1995
EXTT0=
EXTT1=
EXTT2=
EXTT3=
EXTT4=
EXTT5=
EXTT6=
EXTT7=
EXTT8=
EXTT9=
EXTT10=
EXTT11=
EXTT12=
EXTT13=
EXTT14=
EXTT15=
EXTT16=
EXTT17=
EXTT18=
EXTT19=
EXTT20=
EXTT21=
EXTT22=
EXTT23=
EXTT24=
EXTT25=
EXTT26=
EXTT27=
EXTT28=
EXTT29=
EXTT30=
EXTT31=
EXTT32=
EXTT33=
EXTT34=
EXTT35=
EXTT36=
EXTT37=
EXTT38=
PLAYORDER=
